# MagicaVoxel @ Ephtracy

# group
o 

# material
mtllib 2xm.mtl
usemtl palette

# normals
vn -1 0 0
vn 1 0 0
vn 0 0 1
vn 0 0 -1
vn 0 -1 0
vn 0 1 0

# texcoords
vt 0.00195312 0.5
vt 0.00585938 0.5
vt 0.0214844 0.5

# verts
v -0.1 0 0.2
v -0.1 0 -0.3
v -0.1 0.1 0.4
v -0.1 0.1 0.2
v -0.1 0.1 -0.3
v -0.1 0.1 -0.5
v -0.1 0.2 0.5
v -0.1 0.2 0.4
v -0.1 0.2 0.2
v -0.1 0.2 -0.3
v -0.1 0.2 -0.5
v -0.1 0.2 -0.6
v -0.1 0.4 0.6
v -0.1 0.4 0.5
v -0.1 0.4 0.4
v -0.1 0.4 0.3
v -0.1 0.4 0.1
v -0.1 0.4 5.96046e-08
v -0.1 0.4 -0.1
v -0.1 0.4 -0.5
v -0.1 0.4 -0.6
v -0.1 0.4 -0.7
v -0.1 0.5 -0.1
v -0.1 0.5 -0.4
v -0.1 0.6 0.4
v -0.1 0.6 0.3
v -0.1 0.6 0.1
v -0.1 0.6 5.96046e-08
v -0.1 0.6 -0.2
v -0.1 0.6 -0.4
v -0.1 0.6 -0.5
v -0.1 0.7 -0.1
v -0.1 0.7 -0.2
v -0.1 0.7 -0.4
v -0.1 0.8 0.4
v -0.1 0.8 0.3
v -0.1 0.8 0.1
v -0.1 0.8 5.96046e-08
v -0.1 0.8 -0.4
v -0.1 0.8 -0.5
v -0.1 0.9 0.6
v -0.1 0.9 0.5
v -0.1 0.9 0.4
v -0.1 0.9 -0.1
v -0.1 0.9 -0.2
v -0.1 0.9 -0.4
v -0.1 0.9 -0.5
v -0.1 0.9 -0.6
v -0.1 0.9 -0.7
v -0.1 1 0.4
v -0.1 1 0.3
v -0.1 1 0.1
v -0.1 1 5.96046e-08
v -0.1 1 -0.2
v -0.1 1 -0.4
v -0.1 1.1 0.5
v -0.1 1.1 0.4
v -0.1 1.1 0.2
v -0.1 1.1 -0.3
v -0.1 1.1 -0.5
v -0.1 1.1 -0.6
v -0.1 1.2 0.4
v -0.1 1.2 0.2
v -0.1 1.2 -0.3
v -0.1 1.2 -0.5
v -0.1 1.3 0.2
v -0.1 1.3 -0.3
v 0.1 0 0.2
v 0.1 0 -0.3
v 0.1 0.1 0.4
v 0.1 0.1 0.2
v 0.1 0.1 -0.3
v 0.1 0.1 -0.5
v 0.1 0.2 0.5
v 0.1 0.2 0.4
v 0.1 0.2 0.2
v 0.1 0.2 -0.3
v 0.1 0.2 -0.5
v 0.1 0.2 -0.6
v 0.1 0.4 0.6
v 0.1 0.4 0.5
v 0.1 0.4 0.4
v 0.1 0.4 5.96046e-08
v 0.1 0.4 -0.1
v 0.1 0.4 -0.2
v 0.1 0.4 -0.4
v 0.1 0.4 -0.5
v 0.1 0.4 -0.6
v 0.1 0.4 -0.7
v 0.1 0.5 0.3
v 0.1 0.5 5.96046e-08
v 0.1 0.6 0.4
v 0.1 0.6 0.3
v 0.1 0.6 0.1
v 0.1 0.6 -0.1
v 0.1 0.6 -0.2
v 0.1 0.6 -0.4
v 0.1 0.6 -0.5
v 0.1 0.7 0.3
v 0.1 0.7 0.1
v 0.1 0.7 5.96046e-08
v 0.1 0.8 0.4
v 0.1 0.8 0.3
v 0.1 0.8 -0.1
v 0.1 0.8 -0.2
v 0.1 0.8 -0.4
v 0.1 0.8 -0.5
v 0.1 0.9 0.6
v 0.1 0.9 0.5
v 0.1 0.9 0.4
v 0.1 0.9 0.3
v 0.1 0.9 0.1
v 0.1 0.9 5.96046e-08
v 0.1 0.9 -0.5
v 0.1 0.9 -0.6
v 0.1 0.9 -0.7
v 0.1 1 0.3
v 0.1 1 0.1
v 0.1 1 -0.1
v 0.1 1 -0.2
v 0.1 1 -0.4
v 0.1 1 -0.5
v 0.1 1.1 0.5
v 0.1 1.1 0.4
v 0.1 1.1 0.2
v 0.1 1.1 -0.3
v 0.1 1.1 -0.5
v 0.1 1.1 -0.6
v 0.1 1.2 0.4
v 0.1 1.2 0.2
v 0.1 1.2 -0.3
v 0.1 1.2 -0.5
v 0.1 1.3 0.2
v 0.1 1.3 -0.3
v -0.1 0.4 0.6
v -0.1 0.9 0.6
v 0.1 0.4 0.6
v 0.1 0.9 0.6
v -0.1 0.2 0.5
v -0.1 0.4 0.5
v -0.1 0.9 0.5
v -0.1 1.1 0.5
v 0.1 0.2 0.5
v 0.1 0.4 0.5
v 0.1 0.9 0.5
v 0.1 1.1 0.5
v -0.1 0.1 0.4
v -0.1 0.2 0.4
v -0.1 1.1 0.4
v -0.1 1.2 0.4
v 0.1 0.1 0.4
v 0.1 0.2 0.4
v 0.1 1.1 0.4
v 0.1 1.2 0.4
v -0.1 0 0.2
v -0.1 0.1 0.2
v -0.1 1.2 0.2
v -0.1 1.3 0.2
v 0.1 0 0.2
v 0.1 0.1 0.2
v 0.1 1.2 0.2
v 0.1 1.3 0.2
v -0.1 0 -0.3
v -0.1 0.1 -0.3
v -0.1 1.2 -0.3
v -0.1 1.3 -0.3
v 0.1 0 -0.3
v 0.1 0.1 -0.3
v 0.1 1.2 -0.3
v 0.1 1.3 -0.3
v -0.1 0.1 -0.5
v -0.1 0.2 -0.5
v -0.1 1.1 -0.5
v -0.1 1.2 -0.5
v 0.1 0.1 -0.5
v 0.1 0.2 -0.5
v 0.1 1.1 -0.5
v 0.1 1.2 -0.5
v -0.1 0.2 -0.6
v -0.1 0.4 -0.6
v -0.1 0.9 -0.6
v -0.1 1.1 -0.6
v 0.1 0.2 -0.6
v 0.1 0.4 -0.6
v 0.1 0.9 -0.6
v 0.1 1.1 -0.6
v -0.1 0.4 -0.7
v -0.1 0.9 -0.7
v 0.1 0.4 -0.7
v 0.1 0.9 -0.7
v -0.1 0 0.2
v 0.1 0 0.2
v -0.1 0 -0.3
v 0.1 0 -0.3
v -0.1 0.1 0.4
v 0.1 0.1 0.4
v -0.1 0.1 0.2
v 0.1 0.1 0.2
v -0.1 0.1 -0.3
v 0.1 0.1 -0.3
v -0.1 0.1 -0.5
v 0.1 0.1 -0.5
v -0.1 0.2 0.5
v 0.1 0.2 0.5
v -0.1 0.2 0.4
v 0.1 0.2 0.4
v -0.1 0.2 -0.5
v 0.1 0.2 -0.5
v -0.1 0.2 -0.6
v 0.1 0.2 -0.6
v -0.1 0.4 0.6
v 0.1 0.4 0.6
v -0.1 0.4 0.5
v 0.1 0.4 0.5
v -0.1 0.4 -0.6
v 0.1 0.4 -0.6
v -0.1 0.4 -0.7
v 0.1 0.4 -0.7
v -0.1 0.9 0.6
v 0.1 0.9 0.6
v -0.1 0.9 0.5
v 0.1 0.9 0.5
v -0.1 0.9 -0.6
v 0.1 0.9 -0.6
v -0.1 0.9 -0.7
v 0.1 0.9 -0.7
v -0.1 1.1 0.5
v 0.1 1.1 0.5
v -0.1 1.1 0.4
v 0.1 1.1 0.4
v -0.1 1.1 -0.5
v 0.1 1.1 -0.5
v -0.1 1.1 -0.6
v 0.1 1.1 -0.6
v -0.1 1.2 0.4
v 0.1 1.2 0.4
v -0.1 1.2 0.2
v 0.1 1.2 0.2
v -0.1 1.2 -0.3
v 0.1 1.2 -0.3
v -0.1 1.2 -0.5
v 0.1 1.2 -0.5
v -0.1 1.3 0.2
v 0.1 1.3 0.2
v -0.1 1.3 -0.3
v 0.1 1.3 -0.3

# faces
f 4/2/1 2/2/1 1/2/1
f 5/2/1 2/2/1 4/2/1
f 8/2/1 4/2/1 3/2/1
f 9/1/1 5/1/1 4/1/1
f 9/2/1 4/2/1 8/2/1
f 10/2/1 6/2/1 5/2/1
f 10/1/1 5/1/1 9/1/1
f 11/2/1 6/2/1 10/2/1
f 14/2/1 8/2/1 7/2/1
f 15/1/1 9/1/1 8/1/1
f 15/1/1 10/1/1 9/1/1
f 15/2/1 8/2/1 14/2/1
f 15/1/1 11/1/1 10/1/1
f 16/1/1 11/1/1 15/1/1
f 17/1/1 11/1/1 16/1/1
f 18/1/1 11/1/1 17/1/1
f 19/1/1 11/1/1 18/1/1
f 20/2/1 12/2/1 11/2/1
f 20/1/1 11/1/1 19/1/1
f 21/2/1 12/2/1 20/2/1
f 23/1/1 19/1/1 18/1/1
f 23/3/1 20/3/1 19/3/1
f 24/3/1 20/3/1 23/3/1
f 25/1/1 15/1/1 14/1/1
f 25/3/1 16/3/1 15/3/1
f 26/1/1 17/1/1 16/1/1
f 26/3/1 16/3/1 25/3/1
f 27/3/1 18/3/1 17/3/1
f 27/1/1 17/1/1 26/1/1
f 28/1/1 24/1/1 23/1/1
f 28/3/1 18/3/1 27/3/1
f 28/1/1 23/1/1 18/1/1
f 29/1/1 24/1/1 28/1/1
f 30/3/1 20/3/1 24/3/1
f 30/1/1 24/1/1 29/1/1
f 31/1/1 21/1/1 20/1/1
f 31/3/1 20/3/1 30/3/1
f 32/1/1 29/1/1 28/1/1
f 32/1/1 28/1/1 27/1/1
f 33/3/1 30/3/1 29/3/1
f 33/1/1 29/1/1 32/1/1
f 34/1/1 31/1/1 30/1/1
f 34/3/1 30/3/1 33/3/1
f 35/1/1 25/1/1 14/1/1
f 35/1/1 26/1/1 25/1/1
f 36/3/1 27/3/1 26/3/1
f 36/1/1 26/1/1 35/1/1
f 37/1/1 32/1/1 27/1/1
f 37/3/1 27/3/1 36/3/1
f 38/1/1 32/1/1 37/1/1
f 39/1/1 31/1/1 34/1/1
f 39/1/1 34/1/1 33/1/1
f 40/1/1 21/1/1 31/1/1
f 40/1/1 31/1/1 39/1/1
f 41/2/1 14/2/1 13/2/1
f 42/1/1 35/1/1 14/1/1
f 42/2/1 14/2/1 41/2/1
f 43/3/1 36/3/1 35/3/1
f 43/1/1 35/1/1 42/1/1
f 44/1/1 32/1/1 38/1/1
f 44/3/1 33/3/1 32/3/1
f 45/1/1 39/1/1 33/1/1
f 45/3/1 33/3/1 44/3/1
f 46/3/1 40/3/1 39/3/1
f 46/1/1 39/1/1 45/1/1
f 47/1/1 21/1/1 40/1/1
f 47/3/1 40/3/1 46/3/1
f 48/2/1 22/2/1 21/2/1
f 48/1/1 21/1/1 47/1/1
f 49/2/1 22/2/1 48/2/1
f 50/3/1 36/3/1 43/3/1
f 50/2/1 43/2/1 42/2/1
f 51/1/1 37/1/1 36/1/1
f 51/3/1 36/3/1 50/3/1
f 52/3/1 38/3/1 37/3/1
f 52/1/1 37/1/1 51/1/1
f 53/1/1 44/1/1 38/1/1
f 53/3/1 38/3/1 52/3/1
f 53/1/1 45/1/1 44/1/1
f 54/3/1 46/3/1 45/3/1
f 54/1/1 45/1/1 53/1/1
f 55/1/1 47/1/1 46/1/1
f 55/3/1 46/3/1 54/3/1
f 56/2/1 50/2/1 42/2/1
f 57/1/1 53/1/1 52/1/1
f 57/2/1 50/2/1 56/2/1
f 57/1/1 54/1/1 53/1/1
f 57/1/1 55/1/1 54/1/1
f 57/1/1 52/1/1 51/1/1
f 57/1/1 51/1/1 50/1/1
f 58/1/1 55/1/1 57/1/1
f 59/1/1 55/1/1 58/1/1
f 60/1/1 47/1/1 55/1/1
f 60/1/1 55/1/1 59/1/1
f 60/2/1 48/2/1 47/2/1
f 61/2/1 48/2/1 60/2/1
f 62/2/1 58/2/1 57/2/1
f 63/1/1 59/1/1 58/1/1
f 63/2/1 58/2/1 62/2/1
f 64/2/1 60/2/1 59/2/1
f 64/1/1 59/1/1 63/1/1
f 65/2/1 60/2/1 64/2/1
f 66/2/1 64/2/1 63/2/1
f 67/2/1 64/2/1 66/2/1
f 68/2/2 69/2/2 71/2/2
f 71/2/2 69/2/2 72/2/2
f 70/2/2 71/2/2 75/2/2
f 71/1/2 72/1/2 76/1/2
f 75/2/2 71/2/2 76/2/2
f 72/2/2 73/2/2 77/2/2
f 76/1/2 72/1/2 77/1/2
f 77/2/2 73/2/2 78/2/2
f 74/2/2 75/2/2 81/2/2
f 75/1/2 76/1/2 82/1/2
f 76/1/2 77/1/2 82/1/2
f 81/2/2 75/2/2 82/2/2
f 77/1/2 78/1/2 82/1/2
f 82/1/2 78/1/2 83/1/2
f 83/1/2 78/1/2 84/1/2
f 84/1/2 78/1/2 85/1/2
f 85/1/2 78/1/2 86/1/2
f 78/2/2 79/2/2 87/2/2
f 86/1/2 78/1/2 87/1/2
f 87/2/2 79/2/2 88/2/2
f 82/3/2 83/3/2 90/3/2
f 83/1/2 84/1/2 91/1/2
f 90/3/2 83/3/2 91/3/2
f 81/1/2 82/1/2 92/1/2
f 82/3/2 90/3/2 92/3/2
f 90/1/2 91/1/2 93/1/2
f 92/3/2 90/3/2 93/3/2
f 93/1/2 91/1/2 94/1/2
f 91/1/2 84/1/2 95/1/2
f 94/1/2 91/1/2 95/1/2
f 84/3/2 85/3/2 95/3/2
f 85/1/2 86/1/2 96/1/2
f 95/3/2 85/3/2 96/3/2
f 86/3/2 87/3/2 97/3/2
f 96/1/2 86/1/2 97/1/2
f 87/1/2 88/1/2 98/1/2
f 97/3/2 87/3/2 98/3/2
f 93/3/2 94/3/2 99/3/2
f 92/1/2 93/1/2 99/1/2
f 94/1/2 95/1/2 100/1/2
f 99/3/2 94/3/2 100/3/2
f 95/1/2 96/1/2 100/1/2
f 100/1/2 96/1/2 101/1/2
f 92/1/2 99/1/2 102/1/2
f 81/1/2 92/1/2 102/1/2
f 99/1/2 100/1/2 102/1/2
f 102/1/2 100/1/2 103/1/2
f 101/1/2 96/1/2 104/1/2
f 96/3/2 97/3/2 105/3/2
f 104/1/2 96/1/2 105/1/2
f 97/1/2 98/1/2 106/1/2
f 105/3/2 97/3/2 106/3/2
f 98/1/2 88/1/2 107/1/2
f 106/1/2 98/1/2 107/1/2
f 80/2/2 81/2/2 108/2/2
f 81/1/2 102/1/2 109/1/2
f 108/2/2 81/2/2 109/2/2
f 102/3/2 103/3/2 110/3/2
f 109/1/2 102/1/2 110/1/2
f 103/1/2 100/1/2 111/1/2
f 110/3/2 103/3/2 111/3/2
f 100/3/2 101/3/2 112/3/2
f 111/1/2 100/1/2 112/1/2
f 101/1/2 104/1/2 113/1/2
f 112/3/2 101/3/2 113/3/2
f 107/1/2 88/1/2 114/1/2
f 106/3/2 107/3/2 114/3/2
f 88/2/2 89/2/2 115/2/2
f 114/1/2 88/1/2 115/1/2
f 115/2/2 89/2/2 116/2/2
f 110/1/2 111/1/2 117/1/2
f 111/3/2 112/3/2 117/3/2
f 112/1/2 113/1/2 118/1/2
f 117/3/2 112/3/2 118/3/2
f 113/1/2 104/1/2 119/1/2
f 118/1/2 113/1/2 119/1/2
f 104/3/2 105/3/2 119/3/2
f 105/1/2 106/1/2 120/1/2
f 119/3/2 105/3/2 120/3/2
f 106/3/2 114/3/2 121/3/2
f 120/1/2 106/1/2 121/1/2
f 114/2/2 115/2/2 122/2/2
f 121/3/2 114/3/2 122/3/2
f 109/2/2 110/2/2 123/2/2
f 117/1/2 118/1/2 124/1/2
f 123/2/2 110/2/2 124/2/2
f 118/1/2 119/1/2 124/1/2
f 121/1/2 122/1/2 124/1/2
f 119/1/2 120/1/2 124/1/2
f 120/1/2 121/1/2 124/1/2
f 110/1/2 117/1/2 124/1/2
f 124/1/2 122/1/2 125/1/2
f 125/1/2 122/1/2 126/1/2
f 122/2/2 115/2/2 127/2/2
f 126/1/2 122/1/2 127/1/2
f 127/2/2 115/2/2 128/2/2
f 124/2/2 125/2/2 129/2/2
f 125/1/2 126/1/2 130/1/2
f 129/2/2 125/2/2 130/2/2
f 126/2/2 127/2/2 131/2/2
f 130/1/2 126/1/2 131/1/2
f 131/2/2 127/2/2 132/2/2
f 130/2/2 131/2/2 133/2/2
f 133/2/2 131/2/2 134/2/2
f 137/2/3 136/2/3 135/2/3
f 138/2/3 136/2/3 137/2/3
f 143/2/3 140/2/3 139/2/3
f 144/2/3 140/2/3 143/2/3
f 145/2/3 142/2/3 141/2/3
f 146/2/3 142/2/3 145/2/3
f 151/2/3 148/2/3 147/2/3
f 152/2/3 148/2/3 151/2/3
f 153/2/3 150/2/3 149/2/3
f 154/2/3 150/2/3 153/2/3
f 159/2/3 156/2/3 155/2/3
f 160/2/3 156/2/3 159/2/3
f 161/2/3 158/2/3 157/2/3
f 162/2/3 158/2/3 161/2/3
f 163/2/4 164/2/4 167/2/4
f 167/2/4 164/2/4 168/2/4
f 165/2/4 166/2/4 169/2/4
f 169/2/4 166/2/4 170/2/4
f 171/2/4 172/2/4 175/2/4
f 175/2/4 172/2/4 176/2/4
f 173/2/4 174/2/4 177/2/4
f 177/2/4 174/2/4 178/2/4
f 179/2/4 180/2/4 183/2/4
f 183/2/4 180/2/4 184/2/4
f 181/2/4 182/2/4 185/2/4
f 185/2/4 182/2/4 186/2/4
f 187/2/4 188/2/4 189/2/4
f 189/2/4 188/2/4 190/2/4
f 193/2/5 192/2/5 191/2/5
f 194/2/5 192/2/5 193/2/5
f 197/2/5 196/2/5 195/2/5
f 198/2/5 196/2/5 197/2/5
f 201/2/5 200/2/5 199/2/5
f 202/2/5 200/2/5 201/2/5
f 205/2/5 204/2/5 203/2/5
f 206/2/5 204/2/5 205/2/5
f 209/2/5 208/2/5 207/2/5
f 210/2/5 208/2/5 209/2/5
f 213/2/5 212/2/5 211/2/5
f 214/2/5 212/2/5 213/2/5
f 217/2/5 216/2/5 215/2/5
f 218/2/5 216/2/5 217/2/5
f 219/2/6 220/2/6 221/2/6
f 221/2/6 220/2/6 222/2/6
f 223/2/6 224/2/6 225/2/6
f 225/2/6 224/2/6 226/2/6
f 227/2/6 228/2/6 229/2/6
f 229/2/6 228/2/6 230/2/6
f 231/2/6 232/2/6 233/2/6
f 233/2/6 232/2/6 234/2/6
f 235/2/6 236/2/6 237/2/6
f 237/2/6 236/2/6 238/2/6
f 239/2/6 240/2/6 241/2/6
f 241/2/6 240/2/6 242/2/6
f 243/2/6 244/2/6 245/2/6
f 245/2/6 244/2/6 246/2/6
