# MagicaVoxel @ Ephtracy

# group
o 

# material
mtllib shoes.mtl
usemtl palette

# normals
vn -1 0 0
vn 1 0 0
vn 0 0 1
vn 0 0 -1
vn 0 -1 0
vn 0 1 0

# texcoords
vt 0.00195312 0.5
vt 0.0175781 0.5

# verts
v -0.2 0 0.4
v -0.2 0 -0.4
v -0.2 0.2 0
v -0.2 0.2 -0.4
v -0.2 0.3 0.4
v -0.2 0.3 0
v -0.1 0.3 0.3
v -0.1 0.3 0.1
v -0.1 0.4 0.3
v -0.1 0.4 0.1
v 0.1 0.3 0.3
v 0.1 0.3 0.1
v 0.1 0.4 0.3
v 0.1 0.4 0.1
v 0.2 0 0.4
v 0.2 0 -0.4
v 0.2 0.2 0
v 0.2 0.2 -0.4
v 0.2 0.3 0.4
v 0.2 0.3 0
v -0.2 0 0.4
v -0.2 0.3 0.4
v 0.2 0 0.4
v 0.2 0.3 0.4
v -0.1 0.3 0.3
v -0.1 0.4 0.3
v 0.1 0.3 0.3
v 0.1 0.4 0.3
v -0.1 0.3 0.1
v -0.1 0.4 0.1
v 0.1 0.3 0.1
v 0.1 0.4 0.1
v -0.2 0.2 0
v -0.2 0.3 0
v 0.2 0.2 0
v 0.2 0.3 0
v -0.2 0 -0.4
v -0.2 0.2 -0.4
v 0.2 0 -0.4
v 0.2 0.2 -0.4
v -0.2 0 0.4
v 0.2 0 0.4
v -0.2 0 -0.4
v 0.2 0 -0.4
v -0.2 0.2 0
v 0.2 0.2 0
v -0.2 0.2 -0.4
v 0.2 0.2 -0.4
v -0.2 0.3 0.4
v 0.2 0.3 0.4
v -0.1 0.3 0.3
v 0.1 0.3 0.3
v -0.1 0.3 0.1
v 0.1 0.3 0.1
v -0.2 0.3 0
v 0.2 0.3 0
v -0.1 0.4 0.3
v 0.1 0.4 0.3
v -0.1 0.4 0.1
v 0.1 0.4 0.1

# faces
f 3/1/1 2/1/1 1/1/1
f 4/1/1 2/1/1 3/1/1
f 5/1/1 3/1/1 1/1/1
f 6/1/1 3/1/1 5/1/1
f 9/2/1 8/2/1 7/2/1
f 10/2/1 8/2/1 9/2/1
f 11/2/2 12/2/2 13/2/2
f 13/2/2 12/2/2 14/2/2
f 15/1/2 16/1/2 17/1/2
f 17/1/2 16/1/2 18/1/2
f 15/1/2 17/1/2 19/1/2
f 19/1/2 17/1/2 20/1/2
f 23/1/3 22/1/3 21/1/3
f 24/1/3 22/1/3 23/1/3
f 27/2/3 26/2/3 25/2/3
f 28/2/3 26/2/3 27/2/3
f 29/2/4 30/2/4 31/2/4
f 31/2/4 30/2/4 32/2/4
f 33/1/4 34/1/4 35/1/4
f 35/1/4 34/1/4 36/1/4
f 37/1/4 38/1/4 39/1/4
f 39/1/4 38/1/4 40/1/4
f 43/1/5 42/1/5 41/1/5
f 44/1/5 42/1/5 43/1/5
f 45/1/6 46/1/6 47/1/6
f 47/1/6 46/1/6 48/1/6
f 49/1/6 50/1/6 51/1/6
f 51/1/6 50/1/6 52/1/6
f 49/1/6 51/1/6 53/1/6
f 52/1/6 50/1/6 54/1/6
f 49/1/6 53/1/6 55/1/6
f 53/1/6 54/1/6 55/1/6
f 54/1/6 50/1/6 56/1/6
f 55/1/6 54/1/6 56/1/6
f 57/2/6 58/2/6 59/2/6
f 59/2/6 58/2/6 60/2/6
