# MagicaVoxel @ Ephtracy

# group
o 

# material
mtllib traficstop_down.mtl
usemtl palette

# normals
vn -1 0 0
vn 1 0 0
vn 0 0 1
vn 0 0 -1
vn 0 -1 0
vn 0 1 0

# texcoords
vt 0.00195312 0.5
vt 0.00585938 0.5
vt 0.00976562 0.5
vt 0.0605469 0.5

# verts
v -0.1 0 1
v -0.1 0 -0.7
v -0.1 0.1 1
v -0.1 0.1 -0.7
v 0.2 0.1 0.9
v 0.2 0.1 0.8
v 0.2 0.1 -0.5
v 0.2 0.1 -0.6
v 0.2 0.7 0.9
v 0.2 0.7 0.8
v 0.2 0.7 -0.5
v 0.2 0.7 -0.6
v 0.2 0.8 0.3
v 0.2 0.8 0
v 0.2 0.9 0.4
v 0.2 0.9 0.3
v 0.2 0.9 0
v 0.2 0.9 -0.1
v 0.2 1 0.5
v 0.2 1 0.4
v 0.2 1 -0.1
v 0.2 1 -0.2
v 0.2 1.1 0.6
v 0.2 1.1 0.5
v 0.2 1.1 -0.2
v 0.2 1.1 -0.3
v 0.2 1.2 0.7
v 0.2 1.2 0.6
v 0.2 1.2 -0.3
v 0.2 1.2 -0.4
v 0.2 1.3 0.8
v 0.2 1.3 0.7
v 0.2 1.3 -0.4
v 0.2 1.3 -0.5
v 0.2 1.4 0.8
v 0.2 1.4 -0.5
v 0.2 1.5 0.9
v 0.2 1.5 -0.6
v 0.4 0.1 0.9
v 0.4 0.1 0.8
v 0.4 0.1 -0.5
v 0.4 0.1 -0.6
v 0.4 0.7 0.9
v 0.4 0.7 0.8
v 0.4 0.7 -0.5
v 0.4 0.7 -0.6
v 0.4 0.8 0.3
v 0.4 0.8 0
v 0.4 0.9 0.4
v 0.4 0.9 0.3
v 0.4 0.9 0
v 0.4 0.9 -0.1
v 0.4 1 0.5
v 0.4 1 0.4
v 0.4 1 -0.1
v 0.4 1 -0.2
v 0.4 1.1 0.6
v 0.4 1.1 0.5
v 0.4 1.1 -0.2
v 0.4 1.1 -0.3
v 0.4 1.2 0.7
v 0.4 1.2 0.6
v 0.4 1.2 -0.3
v 0.4 1.2 -0.4
v 0.4 1.3 0.8
v 0.4 1.3 0.7
v 0.4 1.3 -0.4
v 0.4 1.3 -0.5
v 0.4 1.4 0.8
v 0.4 1.4 -0.5
v 0.4 1.5 0.9
v 0.4 1.5 -0.6
v 0.7 0 1
v 0.7 0 -0.7
v 0.7 0.1 1
v 0.7 0.1 -0.7
v -0.1 0 1
v -0.1 0.1 1
v 0.7 0 1
v 0.7 0.1 1
v 0.2 0.1 0.9
v 0.2 0.7 0.9
v 0.2 1.5 0.9
v 0.4 0.1 0.9
v 0.4 0.7 0.9
v 0.4 1.5 0.9
v 0.2 0.1 -0.5
v 0.2 0.7 -0.5
v 0.4 0.1 -0.5
v 0.4 0.7 -0.5
v 0.2 0.1 0.8
v 0.2 0.7 0.8
v 0.4 0.1 0.8
v 0.4 0.7 0.8
v 0.2 0.1 -0.6
v 0.2 0.7 -0.6
v 0.2 1.5 -0.6
v 0.4 0.1 -0.6
v 0.4 0.7 -0.6
v 0.4 1.5 -0.6
v -0.1 0 -0.7
v -0.1 0.1 -0.7
v 0.7 0 -0.7
v 0.7 0.1 -0.7
v -0.1 0 1
v 0.7 0 1
v -0.1 0 -0.7
v 0.7 0 -0.7
v 0.2 0.7 0.8
v 0.4 0.7 0.8
v 0.2 0.7 -0.5
v 0.4 0.7 -0.5
v -0.1 0.1 1
v 0.7 0.1 1
v 0.2 0.1 0.9
v 0.4 0.1 0.9
v 0.2 0.1 0.8
v 0.4 0.1 0.8
v 0.2 0.1 -0.5
v 0.4 0.1 -0.5
v 0.2 0.1 -0.6
v 0.4 0.1 -0.6
v -0.1 0.1 -0.7
v 0.7 0.1 -0.7
v 0.2 1.5 0.9
v 0.4 1.5 0.9
v 0.2 1.5 -0.6
v 0.4 1.5 -0.6

# faces
f 3/3/1 2/3/1 1/3/1
f 4/3/1 2/3/1 3/3/1
f 9/2/1 6/2/1 5/2/1
f 10/2/1 6/2/1 9/2/1
f 11/2/1 8/2/1 7/2/1
f 12/2/1 8/2/1 11/2/1
f 13/1/1 10/1/1 9/1/1
f 13/1/1 11/1/1 10/1/1
f 13/1/1 12/1/1 11/1/1
f 14/1/1 12/1/1 13/1/1
f 15/1/1 13/1/1 9/1/1
f 16/4/1 14/4/1 13/4/1
f 16/1/1 13/1/1 15/1/1
f 17/1/1 12/1/1 14/1/1
f 17/4/1 14/4/1 16/4/1
f 18/1/1 12/1/1 17/1/1
f 19/1/1 15/1/1 9/1/1
f 20/4/1 16/4/1 15/4/1
f 20/1/1 15/1/1 19/1/1
f 20/4/1 17/4/1 16/4/1
f 20/4/1 18/4/1 17/4/1
f 21/1/1 12/1/1 18/1/1
f 21/4/1 18/4/1 20/4/1
f 22/1/1 12/1/1 21/1/1
f 23/1/1 19/1/1 9/1/1
f 24/4/1 20/4/1 19/4/1
f 24/1/1 19/1/1 23/1/1
f 24/4/1 21/4/1 20/4/1
f 24/4/1 22/4/1 21/4/1
f 25/1/1 12/1/1 22/1/1
f 25/4/1 22/4/1 24/4/1
f 26/1/1 12/1/1 25/1/1
f 27/1/1 23/1/1 9/1/1
f 28/4/1 24/4/1 23/4/1
f 28/1/1 23/1/1 27/1/1
f 28/4/1 25/4/1 24/4/1
f 28/4/1 26/4/1 25/4/1
f 29/1/1 12/1/1 26/1/1
f 29/4/1 26/4/1 28/4/1
f 30/1/1 12/1/1 29/1/1
f 31/1/1 27/1/1 9/1/1
f 32/4/1 28/4/1 27/4/1
f 32/1/1 27/1/1 31/1/1
f 32/4/1 29/4/1 28/4/1
f 32/4/1 30/4/1 29/4/1
f 33/1/1 12/1/1 30/1/1
f 33/4/1 30/4/1 32/4/1
f 34/1/1 12/1/1 33/1/1
f 35/4/1 32/4/1 31/4/1
f 35/1/1 31/1/1 9/1/1
f 35/4/1 34/4/1 33/4/1
f 35/4/1 33/4/1 32/4/1
f 36/1/1 12/1/1 34/1/1
f 36/4/1 34/4/1 35/4/1
f 37/1/1 35/1/1 9/1/1
f 37/1/1 36/1/1 35/1/1
f 38/1/1 12/1/1 36/1/1
f 38/1/1 36/1/1 37/1/1
f 39/2/2 40/2/2 43/2/2
f 43/2/2 40/2/2 44/2/2
f 41/2/2 42/2/2 45/2/2
f 45/2/2 42/2/2 46/2/2
f 43/1/2 44/1/2 47/1/2
f 44/1/2 45/1/2 47/1/2
f 45/1/2 46/1/2 47/1/2
f 47/1/2 46/1/2 48/1/2
f 43/1/2 47/1/2 49/1/2
f 47/4/2 48/4/2 50/4/2
f 49/1/2 47/1/2 50/1/2
f 48/1/2 46/1/2 51/1/2
f 50/4/2 48/4/2 51/4/2
f 51/1/2 46/1/2 52/1/2
f 43/1/2 49/1/2 53/1/2
f 49/4/2 50/4/2 54/4/2
f 53/1/2 49/1/2 54/1/2
f 50/4/2 51/4/2 54/4/2
f 51/4/2 52/4/2 54/4/2
f 52/1/2 46/1/2 55/1/2
f 54/4/2 52/4/2 55/4/2
f 55/1/2 46/1/2 56/1/2
f 43/1/2 53/1/2 57/1/2
f 53/4/2 54/4/2 58/4/2
f 57/1/2 53/1/2 58/1/2
f 54/4/2 55/4/2 58/4/2
f 55/4/2 56/4/2 58/4/2
f 56/1/2 46/1/2 59/1/2
f 58/4/2 56/4/2 59/4/2
f 59/1/2 46/1/2 60/1/2
f 43/1/2 57/1/2 61/1/2
f 57/4/2 58/4/2 62/4/2
f 61/1/2 57/1/2 62/1/2
f 58/4/2 59/4/2 62/4/2
f 59/4/2 60/4/2 62/4/2
f 60/1/2 46/1/2 63/1/2
f 62/4/2 60/4/2 63/4/2
f 63/1/2 46/1/2 64/1/2
f 43/1/2 61/1/2 65/1/2
f 61/4/2 62/4/2 66/4/2
f 65/1/2 61/1/2 66/1/2
f 62/4/2 63/4/2 66/4/2
f 63/4/2 64/4/2 66/4/2
f 64/1/2 46/1/2 67/1/2
f 66/4/2 64/4/2 67/4/2
f 67/1/2 46/1/2 68/1/2
f 65/4/2 66/4/2 69/4/2
f 43/1/2 65/1/2 69/1/2
f 67/4/2 68/4/2 69/4/2
f 66/4/2 67/4/2 69/4/2
f 68/1/2 46/1/2 70/1/2
f 69/4/2 68/4/2 70/4/2
f 43/1/2 69/1/2 71/1/2
f 69/1/2 70/1/2 71/1/2
f 70/1/2 46/1/2 72/1/2
f 71/1/2 70/1/2 72/1/2
f 73/3/2 74/3/2 75/3/2
f 75/3/2 74/3/2 76/3/2
f 79/3/3 78/3/3 77/3/3
f 80/3/3 78/3/3 79/3/3
f 84/2/3 82/2/3 81/2/3
f 85/1/3 83/1/3 82/1/3
f 85/2/3 82/2/3 84/2/3
f 86/1/3 83/1/3 85/1/3
f 89/2/3 88/2/3 87/2/3
f 90/2/3 88/2/3 89/2/3
f 91/2/4 92/2/4 93/2/4
f 93/2/4 92/2/4 94/2/4
f 95/2/4 96/2/4 98/2/4
f 96/1/4 97/1/4 99/1/4
f 98/2/4 96/2/4 99/2/4
f 99/1/4 97/1/4 100/1/4
f 101/3/4 102/3/4 103/3/4
f 103/3/4 102/3/4 104/3/4
f 107/3/5 106/3/5 105/3/5
f 108/3/5 106/3/5 107/3/5
f 111/1/5 110/1/5 109/1/5
f 112/1/5 110/1/5 111/1/5
f 113/3/6 114/3/6 115/3/6
f 115/3/6 114/3/6 116/3/6
f 113/3/6 115/3/6 117/3/6
f 116/3/6 114/3/6 118/3/6
f 113/3/6 117/3/6 119/3/6
f 117/3/6 118/3/6 119/3/6
f 118/3/6 114/3/6 120/3/6
f 119/3/6 118/3/6 120/3/6
f 113/3/6 119/3/6 121/3/6
f 120/3/6 114/3/6 122/3/6
f 113/3/6 121/3/6 123/3/6
f 121/3/6 122/3/6 123/3/6
f 122/3/6 114/3/6 124/3/6
f 123/3/6 122/3/6 124/3/6
f 125/1/6 126/1/6 127/1/6
f 127/1/6 126/1/6 128/1/6
