# MagicaVoxel @ Ephtracy

# group
o 

# material
mtllib traficstop_up.mtl
usemtl palette

# normals
vn -1 0 0
vn 1 0 0
vn 0 0 1
vn 0 0 -1
vn 0 -1 0
vn 0 1 0

# texcoords
vt 0.00195312 0.5
vt 0.00976562 0.5
vt 0.0136719 0.5

# verts
v -0.4 0 0.8
v -0.4 0 -0.9
v -0.4 0.1 0.8
v -0.4 0.1 -0.9
v -0.1 0.1 0.7
v -0.1 0.1 -0.8
v -0.1 0.2 0.6
v -0.1 0.2 -0.7
v -0.1 0.3 0.6
v -0.1 0.3 0.5
v -0.1 0.3 -0.6
v -0.1 0.3 -0.7
v -0.1 0.4 0.5
v -0.1 0.4 0.4
v -0.1 0.4 -0.5
v -0.1 0.4 -0.6
v -0.1 0.5 0.4
v -0.1 0.5 0.3
v -0.1 0.5 -0.4
v -0.1 0.5 -0.5
v -0.1 0.6 0.3
v -0.1 0.6 0.2
v -0.1 0.6 -0.3
v -0.1 0.6 -0.4
v -0.1 0.7 0.2
v -0.1 0.7 0.1
v -0.1 0.7 -0.2
v -0.1 0.7 -0.3
v -0.1 0.8 0.1
v -0.1 0.8 -0.2
v -0.1 0.9 0.7
v -0.1 0.9 -0.8
v 0.1 0.1 0.7
v 0.1 0.1 -0.8
v 0.1 0.2 0.6
v 0.1 0.2 -0.7
v 0.1 0.3 0.6
v 0.1 0.3 0.5
v 0.1 0.3 -0.6
v 0.1 0.3 -0.7
v 0.1 0.4 0.5
v 0.1 0.4 0.4
v 0.1 0.4 -0.5
v 0.1 0.4 -0.6
v 0.1 0.5 0.4
v 0.1 0.5 0.3
v 0.1 0.5 -0.4
v 0.1 0.5 -0.5
v 0.1 0.6 0.3
v 0.1 0.6 0.2
v 0.1 0.6 -0.3
v 0.1 0.6 -0.4
v 0.1 0.7 0.2
v 0.1 0.7 0.1
v 0.1 0.7 -0.2
v 0.1 0.7 -0.3
v 0.1 0.8 0.1
v 0.1 0.8 -0.2
v 0.1 0.9 0.7
v 0.1 0.9 -0.8
v 0.4 0 0.8
v 0.4 0 -0.9
v 0.4 0.1 0.8
v 0.4 0.1 -0.9
v -0.4 0 0.8
v -0.4 0.1 0.8
v 0.4 0 0.8
v 0.4 0.1 0.8
v -0.1 0.1 0.7
v -0.1 0.9 0.7
v 0.1 0.1 0.7
v 0.1 0.9 0.7
v -0.1 0.1 -0.8
v -0.1 0.9 -0.8
v 0.1 0.1 -0.8
v 0.1 0.9 -0.8
v -0.4 0 -0.9
v -0.4 0.1 -0.9
v 0.4 0 -0.9
v 0.4 0.1 -0.9
v -0.4 0 0.8
v 0.4 0 0.8
v -0.4 0 -0.9
v 0.4 0 -0.9
v -0.4 0.1 0.8
v 0.4 0.1 0.8
v -0.1 0.1 0.7
v 0.1 0.1 0.7
v -0.1 0.1 -0.8
v 0.1 0.1 -0.8
v -0.4 0.1 -0.9
v 0.4 0.1 -0.9
v -0.1 0.9 0.7
v 0.1 0.9 0.7
v -0.1 0.9 -0.8
v 0.1 0.9 -0.8

# faces
f 3/1/1 2/1/1 1/1/1
f 4/1/1 2/1/1 3/1/1
f 7/2/1 6/2/1 5/2/1
f 8/2/1 6/2/1 7/2/1
f 9/2/1 7/2/1 5/2/1
f 9/3/1 8/3/1 7/3/1
f 10/3/1 8/3/1 9/3/1
f 11/3/1 8/3/1 10/3/1
f 12/2/1 6/2/1 8/2/1
f 12/3/1 8/3/1 11/3/1
f 13/3/1 11/3/1 10/3/1
f 13/2/1 10/2/1 9/2/1
f 14/3/1 11/3/1 13/3/1
f 15/3/1 11/3/1 14/3/1
f 16/2/1 12/2/1 11/2/1
f 16/3/1 11/3/1 15/3/1
f 17/3/1 15/3/1 14/3/1
f 17/2/1 14/2/1 13/2/1
f 18/3/1 15/3/1 17/3/1
f 19/3/1 15/3/1 18/3/1
f 20/2/1 16/2/1 15/2/1
f 20/3/1 15/3/1 19/3/1
f 21/3/1 19/3/1 18/3/1
f 21/2/1 18/2/1 17/2/1
f 22/3/1 19/3/1 21/3/1
f 23/3/1 19/3/1 22/3/1
f 24/2/1 20/2/1 19/2/1
f 24/3/1 19/3/1 23/3/1
f 25/3/1 23/3/1 22/3/1
f 25/2/1 22/2/1 21/2/1
f 26/3/1 23/3/1 25/3/1
f 27/3/1 23/3/1 26/3/1
f 28/2/1 24/2/1 23/2/1
f 28/3/1 23/3/1 27/3/1
f 29/3/1 27/3/1 26/3/1
f 29/2/1 26/2/1 25/2/1
f 30/2/1 28/2/1 27/2/1
f 30/3/1 27/3/1 29/3/1
f 31/2/1 9/2/1 5/2/1
f 31/2/1 13/2/1 9/2/1
f 31/2/1 30/2/1 29/2/1
f 31/2/1 29/2/1 25/2/1
f 31/2/1 25/2/1 21/2/1
f 31/2/1 17/2/1 13/2/1
f 31/2/1 21/2/1 17/2/1
f 32/2/1 6/2/1 12/2/1
f 32/2/1 30/2/1 31/2/1
f 32/2/1 28/2/1 30/2/1
f 32/2/1 20/2/1 24/2/1
f 32/2/1 16/2/1 20/2/1
f 32/2/1 24/2/1 28/2/1
f 32/2/1 12/2/1 16/2/1
f 33/2/2 34/2/2 35/2/2
f 35/2/2 34/2/2 36/2/2
f 33/2/2 35/2/2 37/2/2
f 35/3/2 36/3/2 37/3/2
f 37/3/2 36/3/2 38/3/2
f 38/3/2 36/3/2 39/3/2
f 36/2/2 34/2/2 40/2/2
f 39/3/2 36/3/2 40/3/2
f 38/3/2 39/3/2 41/3/2
f 37/2/2 38/2/2 41/2/2
f 41/3/2 39/3/2 42/3/2
f 42/3/2 39/3/2 43/3/2
f 39/2/2 40/2/2 44/2/2
f 43/3/2 39/3/2 44/3/2
f 42/3/2 43/3/2 45/3/2
f 41/2/2 42/2/2 45/2/2
f 45/3/2 43/3/2 46/3/2
f 46/3/2 43/3/2 47/3/2
f 43/2/2 44/2/2 48/2/2
f 47/3/2 43/3/2 48/3/2
f 46/3/2 47/3/2 49/3/2
f 45/2/2 46/2/2 49/2/2
f 49/3/2 47/3/2 50/3/2
f 50/3/2 47/3/2 51/3/2
f 47/2/2 48/2/2 52/2/2
f 51/3/2 47/3/2 52/3/2
f 50/3/2 51/3/2 53/3/2
f 49/2/2 50/2/2 53/2/2
f 53/3/2 51/3/2 54/3/2
f 54/3/2 51/3/2 55/3/2
f 51/2/2 52/2/2 56/2/2
f 55/3/2 51/3/2 56/3/2
f 54/3/2 55/3/2 57/3/2
f 53/2/2 54/2/2 57/2/2
f 55/2/2 56/2/2 58/2/2
f 57/3/2 55/3/2 58/3/2
f 33/2/2 37/2/2 59/2/2
f 37/2/2 41/2/2 59/2/2
f 57/2/2 58/2/2 59/2/2
f 53/2/2 57/2/2 59/2/2
f 49/2/2 53/2/2 59/2/2
f 41/2/2 45/2/2 59/2/2
f 45/2/2 49/2/2 59/2/2
f 40/2/2 34/2/2 60/2/2
f 59/2/2 58/2/2 60/2/2
f 58/2/2 56/2/2 60/2/2
f 52/2/2 48/2/2 60/2/2
f 48/2/2 44/2/2 60/2/2
f 56/2/2 52/2/2 60/2/2
f 44/2/2 40/2/2 60/2/2
f 61/1/2 62/1/2 63/1/2
f 63/1/2 62/1/2 64/1/2
f 67/1/3 66/1/3 65/1/3
f 68/1/3 66/1/3 67/1/3
f 71/2/3 70/2/3 69/2/3
f 72/2/3 70/2/3 71/2/3
f 73/2/4 74/2/4 75/2/4
f 75/2/4 74/2/4 76/2/4
f 77/1/4 78/1/4 79/1/4
f 79/1/4 78/1/4 80/1/4
f 83/1/5 82/1/5 81/1/5
f 84/1/5 82/1/5 83/1/5
f 85/1/6 86/1/6 87/1/6
f 87/1/6 86/1/6 88/1/6
f 85/1/6 87/1/6 89/1/6
f 88/1/6 86/1/6 90/1/6
f 85/1/6 89/1/6 91/1/6
f 89/1/6 90/1/6 91/1/6
f 90/1/6 86/1/6 92/1/6
f 91/1/6 90/1/6 92/1/6
f 93/2/6 94/2/6 95/2/6
f 95/2/6 94/2/6 96/2/6
