# MagicaVoxel @ Ephtracy

# group
o 

# material
mtllib busstop.mtl
usemtl palette

# normals
vn -1 0 0
vn 1 0 0
vn 0 0 1
vn 0 0 -1
vn 0 -1 0
vn 0 1 0

# texcoords
vt 0.00195312 0.5
vt 0.00585938 0.5
vt 0.0644531 0.5

# verts
v -0.5 0 1
v -0.5 0 -1.1
v -0.5 0.1 1
v -0.5 0.1 -1
v -0.5 1.4 1
v -0.5 1.4 -1
v -0.5 1.5 1
v -0.5 1.5 -1.1
v 0 1.3 1
v 0 1.3 0.9
v 0 1.3 0.5
v 0 1.3 0.4
v 0 1.3 0
v 0 1.3 -0.1
v 0 1.3 -0.5
v 0 1.3 -0.6
v 0 1.3 -1
v 0 1.4 1
v 0 1.4 0.9
v 0 1.4 0.5
v 0 1.4 0.4
v 0 1.4 0
v 0 1.4 -0.1
v 0 1.4 -0.5
v 0 1.4 -0.6
v 0 1.4 -1
v 0.1 0.1 0.9
v 0.1 0.1 0.8
v 0.1 0.1 0.1
v 0.1 0.1 0
v 0.1 0.3 0.8
v 0.1 0.3 0.1
v 0.1 0.4 0.9
v 0.1 0.4 0
v 0.2 1.2 1
v 0.2 1.2 0.9
v 0.2 1.2 0.5
v 0.2 1.2 0.4
v 0.2 1.2 0
v 0.2 1.2 -0.1
v 0.2 1.2 -0.5
v 0.2 1.2 -0.6
v 0.2 1.2 -1
v 0.2 1.3 1
v 0.2 1.3 0.9
v 0.2 1.3 0.5
v 0.2 1.3 0.4
v 0.2 1.3 0
v 0.2 1.3 -0.1
v 0.2 1.3 -0.5
v 0.2 1.3 -0.6
v 0.2 1.3 -1
v 0.3 1 1
v 0.3 1 0.9
v 0.3 1 0.5
v 0.3 1 0.4
v 0.3 1 0
v 0.3 1 -0.1
v 0.3 1 -0.5
v 0.3 1 -0.6
v 0.3 1 -1
v 0.3 1.2 1
v 0.3 1.2 0.9
v 0.3 1.2 0.5
v 0.3 1.2 0.4
v 0.3 1.2 0
v 0.3 1.2 -0.1
v 0.3 1.2 -0.5
v 0.3 1.2 -0.6
v 0.3 1.2 -1
v 0.4 0.1 1
v 0.4 0.1 0.9
v 0.4 0.1 0.8
v 0.4 0.1 0.5
v 0.4 0.1 0.4
v 0.4 0.1 0.1
v 0.4 0.1 0
v 0.4 0.1 -0.1
v 0.4 0.1 -0.5
v 0.4 0.1 -0.6
v 0.4 0.1 -1
v 0.4 0.3 0.8
v 0.4 0.3 0.5
v 0.4 0.3 0.4
v 0.4 0.3 0.1
v 0.4 0.4 0.9
v 0.4 0.4 0.5
v 0.4 0.4 0.4
v 0.4 0.4 0
v 0.4 1 1
v 0.4 1 0.9
v 0.4 1 0.5
v 0.4 1 0.4
v 0.4 1 0
v 0.4 1 -0.1
v 0.4 1 -0.5
v 0.4 1 -0.6
v 0.4 1 -1
v 0 1.4 1
v 0 1.4 0.9
v 0 1.4 0.5
v 0 1.4 0.4
v 0 1.4 0
v 0 1.4 -0.1
v 0 1.4 -0.5
v 0 1.4 -0.6
v 0 1.4 -1
v 0 1.4 -1.1
v 0 1.5 1
v 0 1.5 0.9
v 0 1.5 0.5
v 0 1.5 0.4
v 0 1.5 0
v 0 1.5 -0.1
v 0 1.5 -0.5
v 0 1.5 -0.6
v 0 1.5 -1
v 0 1.5 -1.1
v 0.2 1.3 1
v 0.2 1.3 0.9
v 0.2 1.3 0.5
v 0.2 1.3 0.4
v 0.2 1.3 0
v 0.2 1.3 -0.1
v 0.2 1.3 -0.5
v 0.2 1.3 -0.6
v 0.2 1.3 -1
v 0.2 1.3 -1.1
v 0.2 1.4 1
v 0.2 1.4 0.9
v 0.2 1.4 0.5
v 0.2 1.4 0.4
v 0.2 1.4 0
v 0.2 1.4 -0.1
v 0.2 1.4 -0.5
v 0.2 1.4 -0.6
v 0.2 1.4 -1
v 0.2 1.4 -1.1
v 0.3 1.2 1
v 0.3 1.2 0.9
v 0.3 1.2 0.5
v 0.3 1.2 0.4
v 0.3 1.2 0
v 0.3 1.2 -0.1
v 0.3 1.2 -0.5
v 0.3 1.2 -0.6
v 0.3 1.2 -1
v 0.3 1.2 -1.1
v 0.3 1.3 1
v 0.3 1.3 0.9
v 0.3 1.3 0.5
v 0.3 1.3 0.4
v 0.3 1.3 0
v 0.3 1.3 -0.1
v 0.3 1.3 -0.5
v 0.3 1.3 -0.6
v 0.3 1.3 -1
v 0.3 1.3 -1.1
v 0.4 1 1
v 0.4 1 0.9
v 0.4 1 0.5
v 0.4 1 0.4
v 0.4 1 0
v 0.4 1 -0.1
v 0.4 1 -0.5
v 0.4 1 -0.6
v 0.4 1 -1
v 0.4 1 -1.1
v 0.4 1.2 1
v 0.4 1.2 0.9
v 0.4 1.2 0.5
v 0.4 1.2 0.4
v 0.4 1.2 0
v 0.4 1.2 -0.1
v 0.4 1.2 -0.5
v 0.4 1.2 -0.6
v 0.4 1.2 -1
v 0.4 1.2 -1.1
v 0.5 0 1
v 0.5 0 -1.1
v 0.5 0.1 0.9
v 0.5 0.1 0.5
v 0.5 0.1 0.4
v 0.5 0.1 0
v 0.5 0.1 -0.1
v 0.5 0.1 -0.5
v 0.5 0.1 -0.6
v 0.5 0.1 -1
v 0.5 1 1
v 0.5 1 0.9
v 0.5 1 0.5
v 0.5 1 0.4
v 0.5 1 0
v 0.5 1 -0.1
v 0.5 1 -0.5
v 0.5 1 -0.6
v 0.5 1 -1
v 0.5 1 -1.1
v -0.5 0 1
v -0.5 0.1 1
v -0.5 1.4 1
v -0.5 1.5 1
v 0 1.3 1
v 0 1.4 1
v 0 1.5 1
v 0.2 1.2 1
v 0.2 1.3 1
v 0.2 1.4 1
v 0.3 1 1
v 0.3 1.2 1
v 0.3 1.3 1
v 0.4 0.1 1
v 0.4 1 1
v 0.4 1.2 1
v 0.5 0 1
v 0.5 1 1
v 0.1 0.1 0.9
v 0.1 0.4 0.9
v 0.4 0.1 0.9
v 0.4 0.4 0.9
v 0.1 0.1 0.1
v 0.1 0.3 0.1
v 0.4 0.1 0.1
v 0.4 0.3 0.1
v -0.5 0.1 -1
v -0.5 1.4 -1
v -0.4 0.1 -1
v -0.4 1.3 -1
v -0.4 1.4 -1
v 0 1.2 -1
v 0 1.3 -1
v 0 1.4 -1
v 0.2 0.9 -1
v 0.2 1.2 -1
v 0.2 1.3 -1
v 0.3 0.1 -1
v 0.3 0.9 -1
v 0.3 1 -1
v 0.3 1.2 -1
v 0.4 0.1 -1
v 0.4 1 -1
v 0.1 0.1 0.8
v 0.1 0.3 0.8
v 0.4 0.1 0.8
v 0.4 0.3 0.8
v 0.1 0.1 0
v 0.1 0.4 0
v 0.4 0.1 0
v 0.4 0.4 0
v -0.5 0 -1.1
v -0.5 1.5 -1.1
v -0.4 0.1 -1.1
v -0.4 1.3 -1.1
v 0 1.2 -1.1
v 0 1.3 -1.1
v 0 1.4 -1.1
v 0 1.5 -1.1
v 0.2 0.9 -1.1
v 0.2 1.2 -1.1
v 0.2 1.3 -1.1
v 0.2 1.4 -1.1
v 0.3 0.1 -1.1
v 0.3 0.9 -1.1
v 0.3 1.2 -1.1
v 0.3 1.3 -1.1
v 0.4 1 -1.1
v 0.4 1.2 -1.1
v 0.5 0 -1.1
v 0.5 1 -1.1
v -0.5 0 1
v 0.5 0 1
v -0.5 0 -1.1
v 0.5 0 -1.1
v 0.1 0.3 0.8
v 0.4 0.3 0.8
v 0.4 0.3 0.5
v 0.4 0.3 0.4
v 0.1 0.3 0.1
v 0.4 0.3 0.1
v 0.3 1 1
v 0.4 1 1
v 0.3 1 0.9
v 0.4 1 0.9
v 0.3 1 0.5
v 0.4 1 0.5
v 0.3 1 0.4
v 0.4 1 0.4
v 0.3 1 0
v 0.4 1 0
v 0.3 1 -0.1
v 0.4 1 -0.1
v 0.3 1 -0.5
v 0.4 1 -0.5
v 0.3 1 -0.6
v 0.4 1 -0.6
v 0.3 1 -1
v 0.4 1 -1
v 0.2 1.2 1
v 0.3 1.2 1
v 0.2 1.2 0.9
v 0.3 1.2 0.9
v 0.2 1.2 0.5
v 0.3 1.2 0.5
v 0.2 1.2 0.4
v 0.3 1.2 0.4
v 0.2 1.2 0
v 0.3 1.2 0
v 0.2 1.2 -0.1
v 0.3 1.2 -0.1
v 0.2 1.2 -0.5
v 0.3 1.2 -0.5
v 0.2 1.2 -0.6
v 0.3 1.2 -0.6
v 0.2 1.2 -1
v 0.3 1.2 -1
v 0 1.3 1
v 0.2 1.3 1
v 0 1.3 0.9
v 0.2 1.3 0.9
v 0 1.3 0.5
v 0.2 1.3 0.5
v 0 1.3 0.4
v 0.2 1.3 0.4
v 0 1.3 0
v 0.2 1.3 0
v 0 1.3 -0.1
v 0.2 1.3 -0.1
v 0 1.3 -0.5
v 0.2 1.3 -0.5
v 0 1.3 -0.6
v 0.2 1.3 -0.6
v 0 1.3 -1
v 0.2 1.3 -1
v -0.5 1.4 1
v 0 1.4 1
v -0.4 1.4 0.9
v 0 1.4 0.9
v -0.4 1.4 0.5
v 0 1.4 0.5
v -0.4 1.4 0.4
v 0 1.4 0.4
v -0.4 1.4 0
v 0 1.4 0
v -0.4 1.4 -0.1
v 0 1.4 -0.1
v -0.4 1.4 -0.5
v 0 1.4 -0.5
v -0.4 1.4 -0.6
v 0 1.4 -0.6
v -0.5 1.4 -1
v -0.4 1.4 -1
v 0 1.4 -1
v -0.5 0.1 1
v 0.4 0.1 1
v 0.1 0.1 0.9
v 0.4 0.1 0.9
v 0.1 0.1 0.8
v 0.4 0.1 0.8
v 0.4 0.1 0.5
v 0.4 0.1 0.4
v 0.1 0.1 0.1
v 0.4 0.1 0.1
v 0.1 0.1 0
v 0.4 0.1 0
v 0.4 0.1 -0.1
v 0.4 0.1 -0.5
v 0.4 0.1 -0.6
v -0.5 0.1 -1
v -0.4 0.1 -1
v 0.3 0.1 -1
v 0.4 0.1 -1
v 0.1 0.4 0.9
v 0.4 0.4 0.9
v 0.4 0.4 0.5
v 0.4 0.4 0.4
v 0.1 0.4 0
v 0.4 0.4 0
v 0.4 1 1
v 0.5 1 1
v 0.4 1 0.9
v 0.5 1 0.9
v 0.4 1 0.5
v 0.5 1 0.5
v 0.4 1 0.4
v 0.5 1 0.4
v 0.4 1 0
v 0.5 1 0
v 0.4 1 -0.1
v 0.5 1 -0.1
v 0.4 1 -0.5
v 0.5 1 -0.5
v 0.4 1 -0.6
v 0.5 1 -0.6
v 0.4 1 -1
v 0.5 1 -1
v 0.4 1 -1.1
v 0.5 1 -1.1
v 0.3 1.2 1
v 0.4 1.2 1
v 0.3 1.2 0.9
v 0.4 1.2 0.9
v 0.3 1.2 0.5
v 0.4 1.2 0.5
v 0.3 1.2 0.4
v 0.4 1.2 0.4
v 0.3 1.2 0
v 0.4 1.2 0
v 0.3 1.2 -0.1
v 0.4 1.2 -0.1
v 0.3 1.2 -0.5
v 0.4 1.2 -0.5
v 0.3 1.2 -0.6
v 0.4 1.2 -0.6
v 0.3 1.2 -1
v 0.4 1.2 -1
v 0.3 1.2 -1.1
v 0.4 1.2 -1.1
v 0.2 1.3 1
v 0.3 1.3 1
v 0.2 1.3 0.9
v 0.3 1.3 0.9
v 0.2 1.3 0.5
v 0.3 1.3 0.5
v 0.2 1.3 0.4
v 0.3 1.3 0.4
v 0.2 1.3 0
v 0.3 1.3 0
v 0.2 1.3 -0.1
v 0.3 1.3 -0.1
v 0.2 1.3 -0.5
v 0.3 1.3 -0.5
v 0.2 1.3 -0.6
v 0.3 1.3 -0.6
v 0.2 1.3 -1
v 0.3 1.3 -1
v 0.2 1.3 -1.1
v 0.3 1.3 -1.1
v 0 1.4 1
v 0.2 1.4 1
v 0 1.4 0.9
v 0.2 1.4 0.9
v 0 1.4 0.5
v 0.2 1.4 0.5
v 0 1.4 0.4
v 0.2 1.4 0.4
v 0 1.4 0
v 0.2 1.4 0
v 0 1.4 -0.1
v 0.2 1.4 -0.1
v 0 1.4 -0.5
v 0.2 1.4 -0.5
v 0 1.4 -0.6
v 0.2 1.4 -0.6
v 0 1.4 -1
v 0.2 1.4 -1
v 0 1.4 -1.1
v 0.2 1.4 -1.1
v -0.5 1.5 1
v 0 1.5 1
v -0.4 1.5 0.9
v 0 1.5 0.9
v -0.4 1.5 0.5
v 0 1.5 0.5
v -0.4 1.5 0.4
v 0 1.5 0.4
v -0.4 1.5 0
v 0 1.5 0
v -0.4 1.5 -0.1
v 0 1.5 -0.1
v -0.4 1.5 -0.5
v 0 1.5 -0.5
v -0.4 1.5 -0.6
v 0 1.5 -0.6
v -0.4 1.5 -1
v 0 1.5 -1
v -0.5 1.5 -1.1
v 0 1.5 -1.1

# faces
f 3/1/1 2/1/1 1/1/1
f 4/1/1 2/1/1 3/1/1
f 6/1/1 2/1/1 4/1/1
f 7/1/1 6/1/1 5/1/1
f 8/1/1 2/1/1 6/1/1
f 8/1/1 6/1/1 7/1/1
f 18/1/1 10/1/1 9/1/1
f 19/2/1 11/2/1 10/2/1
f 19/1/1 10/1/1 18/1/1
f 20/1/1 12/1/1 11/1/1
f 20/2/1 11/2/1 19/2/1
f 21/2/1 13/2/1 12/2/1
f 21/1/1 12/1/1 20/1/1
f 22/1/1 14/1/1 13/1/1
f 22/2/1 13/2/1 21/2/1
f 23/2/1 15/2/1 14/2/1
f 23/1/1 14/1/1 22/1/1
f 24/1/1 16/1/1 15/1/1
f 24/2/1 15/2/1 23/2/1
f 25/2/1 17/2/1 16/2/1
f 25/1/1 16/1/1 24/1/1
f 26/2/1 17/2/1 25/2/1
f 31/3/1 28/3/1 27/3/1
f 32/3/1 30/3/1 29/3/1
f 33/3/1 31/3/1 27/3/1
f 33/3/1 32/3/1 31/3/1
f 34/3/1 30/3/1 32/3/1
f 34/3/1 32/3/1 33/3/1
f 44/1/1 36/1/1 35/1/1
f 45/2/1 37/2/1 36/2/1
f 45/1/1 36/1/1 44/1/1
f 46/1/1 38/1/1 37/1/1
f 46/2/1 37/2/1 45/2/1
f 47/2/1 39/2/1 38/2/1
f 47/1/1 38/1/1 46/1/1
f 48/1/1 40/1/1 39/1/1
f 48/2/1 39/2/1 47/2/1
f 49/2/1 41/2/1 40/2/1
f 49/1/1 40/1/1 48/1/1
f 50/1/1 42/1/1 41/1/1
f 50/2/1 41/2/1 49/2/1
f 51/2/1 43/2/1 42/2/1
f 51/1/1 42/1/1 50/1/1
f 52/2/1 43/2/1 51/2/1
f 62/1/1 54/1/1 53/1/1
f 63/2/1 55/2/1 54/2/1
f 63/1/1 54/1/1 62/1/1
f 64/1/1 56/1/1 55/1/1
f 64/2/1 55/2/1 63/2/1
f 65/2/1 57/2/1 56/2/1
f 65/1/1 56/1/1 64/1/1
f 66/1/1 58/1/1 57/1/1
f 66/2/1 57/2/1 65/2/1
f 67/2/1 59/2/1 58/2/1
f 67/1/1 58/1/1 66/1/1
f 68/1/1 60/1/1 59/1/1
f 68/2/1 59/2/1 67/2/1
f 69/2/1 61/2/1 60/2/1
f 69/1/1 60/1/1 68/1/1
f 70/2/1 61/2/1 69/2/1
f 82/2/1 74/2/1 73/2/1
f 83/1/1 75/1/1 74/1/1
f 83/2/1 74/2/1 82/2/1
f 84/2/1 76/2/1 75/2/1
f 84/1/1 75/1/1 83/1/1
f 85/2/1 76/2/1 84/2/1
f 86/1/1 72/1/1 71/1/1
f 89/1/1 78/1/1 77/1/1
f 90/1/1 86/1/1 71/1/1
f 91/2/1 87/2/1 86/2/1
f 91/1/1 86/1/1 90/1/1
f 92/1/1 88/1/1 87/1/1
f 92/2/1 87/2/1 91/2/1
f 93/2/1 89/2/1 88/2/1
f 93/1/1 88/1/1 92/1/1
f 94/1/1 78/1/1 89/1/1
f 94/2/1 89/2/1 93/2/1
f 95/2/1 79/2/1 78/2/1
f 95/1/1 78/1/1 94/1/1
f 96/1/1 80/1/1 79/1/1
f 96/2/1 79/2/1 95/2/1
f 97/2/1 81/2/1 80/2/1
f 97/1/1 80/1/1 96/1/1
f 98/2/1 81/2/1 97/2/1
f 99/1/2 100/1/2 109/1/2
f 100/2/2 101/2/2 110/2/2
f 109/1/2 100/1/2 110/1/2
f 101/1/2 102/1/2 111/1/2
f 110/2/2 101/2/2 111/2/2
f 102/2/2 103/2/2 112/2/2
f 111/1/2 102/1/2 112/1/2
f 103/1/2 104/1/2 113/1/2
f 112/2/2 103/2/2 113/2/2
f 104/2/2 105/2/2 114/2/2
f 113/1/2 104/1/2 114/1/2
f 105/1/2 106/1/2 115/1/2
f 114/2/2 105/2/2 115/2/2
f 106/2/2 107/2/2 116/2/2
f 115/1/2 106/1/2 116/1/2
f 107/1/2 108/1/2 117/1/2
f 116/2/2 107/2/2 117/2/2
f 117/1/2 108/1/2 118/1/2
f 119/1/2 120/1/2 129/1/2
f 120/2/2 121/2/2 130/2/2
f 129/1/2 120/1/2 130/1/2
f 121/1/2 122/1/2 131/1/2
f 130/2/2 121/2/2 131/2/2
f 122/2/2 123/2/2 132/2/2
f 131/1/2 122/1/2 132/1/2
f 123/1/2 124/1/2 133/1/2
f 132/2/2 123/2/2 133/2/2
f 124/2/2 125/2/2 134/2/2
f 133/1/2 124/1/2 134/1/2
f 125/1/2 126/1/2 135/1/2
f 134/2/2 125/2/2 135/2/2
f 126/2/2 127/2/2 136/2/2
f 135/1/2 126/1/2 136/1/2
f 127/1/2 128/1/2 137/1/2
f 136/2/2 127/2/2 137/2/2
f 137/1/2 128/1/2 138/1/2
f 139/1/2 140/1/2 149/1/2
f 140/2/2 141/2/2 150/2/2
f 149/1/2 140/1/2 150/1/2
f 141/1/2 142/1/2 151/1/2
f 150/2/2 141/2/2 151/2/2
f 142/2/2 143/2/2 152/2/2
f 151/1/2 142/1/2 152/1/2
f 143/1/2 144/1/2 153/1/2
f 152/2/2 143/2/2 153/2/2
f 144/2/2 145/2/2 154/2/2
f 153/1/2 144/1/2 154/1/2
f 145/1/2 146/1/2 155/1/2
f 154/2/2 145/2/2 155/2/2
f 146/2/2 147/2/2 156/2/2
f 155/1/2 146/1/2 156/1/2
f 147/1/2 148/1/2 157/1/2
f 156/2/2 147/2/2 157/2/2
f 157/1/2 148/1/2 158/1/2
f 159/1/2 160/1/2 169/1/2
f 160/2/2 161/2/2 170/2/2
f 169/1/2 160/1/2 170/1/2
f 161/1/2 162/1/2 171/1/2
f 170/2/2 161/2/2 171/2/2
f 162/2/2 163/2/2 172/2/2
f 171/1/2 162/1/2 172/1/2
f 163/1/2 164/1/2 173/1/2
f 172/2/2 163/2/2 173/2/2
f 164/2/2 165/2/2 174/2/2
f 173/1/2 164/1/2 174/1/2
f 165/1/2 166/1/2 175/1/2
f 174/2/2 165/2/2 175/2/2
f 166/2/2 167/2/2 176/2/2
f 175/1/2 166/1/2 176/1/2
f 167/1/2 168/1/2 177/1/2
f 176/2/2 167/2/2 177/2/2
f 177/1/2 168/1/2 178/1/2
f 179/1/2 180/1/2 181/1/2
f 181/1/2 180/1/2 182/1/2
f 182/1/2 180/1/2 183/1/2
f 183/1/2 180/1/2 184/1/2
f 184/1/2 180/1/2 185/1/2
f 185/1/2 180/1/2 186/1/2
f 186/1/2 180/1/2 187/1/2
f 187/1/2 180/1/2 188/1/2
f 179/1/2 181/1/2 189/1/2
f 181/2/2 182/2/2 190/2/2
f 189/1/2 181/1/2 190/1/2
f 182/1/2 183/1/2 191/1/2
f 190/2/2 182/2/2 191/2/2
f 183/2/2 184/2/2 192/2/2
f 191/1/2 183/1/2 192/1/2
f 184/1/2 185/1/2 193/1/2
f 192/2/2 184/2/2 193/2/2
f 185/2/2 186/2/2 194/2/2
f 193/1/2 185/1/2 194/1/2
f 186/1/2 187/1/2 195/1/2
f 194/2/2 186/2/2 195/2/2
f 187/2/2 188/2/2 196/2/2
f 195/1/2 187/1/2 196/1/2
f 188/1/2 180/1/2 197/1/2
f 196/2/2 188/2/2 197/2/2
f 197/1/2 180/1/2 198/1/2
f 204/1/3 202/1/3 201/1/3
f 205/1/3 202/1/3 204/1/3
f 207/1/3 204/1/3 203/1/3
f 208/1/3 204/1/3 207/1/3
f 210/1/3 207/1/3 206/1/3
f 211/1/3 207/1/3 210/1/3
f 212/1/3 200/1/3 199/1/3
f 213/1/3 210/1/3 209/1/3
f 214/1/3 210/1/3 213/1/3
f 215/1/3 212/1/3 199/1/3
f 215/1/3 213/1/3 212/1/3
f 216/1/3 213/1/3 215/1/3
f 219/3/3 218/3/3 217/3/3
f 220/3/3 218/3/3 219/3/3
f 223/3/3 222/3/3 221/3/3
f 224/3/3 222/3/3 223/3/3
f 227/1/3 226/1/3 225/1/3
f 228/1/3 226/1/3 227/1/3
f 229/1/3 226/1/3 228/1/3
f 230/2/3 228/2/3 227/2/3
f 231/1/3 229/1/3 228/1/3
f 231/2/3 228/2/3 230/2/3
f 232/1/3 229/1/3 231/1/3
f 233/2/3 230/2/3 227/2/3
f 234/1/3 231/1/3 230/1/3
f 234/2/3 230/2/3 233/2/3
f 235/1/3 231/1/3 234/1/3
f 236/2/3 233/2/3 227/2/3
f 237/1/3 234/1/3 233/1/3
f 237/2/3 233/2/3 236/2/3
f 238/1/3 234/1/3 237/1/3
f 239/1/3 234/1/3 238/1/3
f 240/1/3 237/1/3 236/1/3
f 240/1/3 238/1/3 237/1/3
f 241/1/3 238/1/3 240/1/3
f 242/3/4 243/3/4 244/3/4
f 244/3/4 243/3/4 245/3/4
f 246/3/4 247/3/4 248/3/4
f 248/3/4 247/3/4 249/3/4
f 250/1/4 251/1/4 252/1/4
f 252/1/4 251/1/4 253/1/4
f 252/2/4 253/2/4 254/2/4
f 253/1/4 251/1/4 255/1/4
f 254/2/4 253/2/4 255/2/4
f 255/1/4 251/1/4 256/1/4
f 256/1/4 251/1/4 257/1/4
f 252/2/4 254/2/4 258/2/4
f 254/1/4 255/1/4 259/1/4
f 258/2/4 254/2/4 259/2/4
f 255/1/4 256/1/4 259/1/4
f 259/1/4 256/1/4 260/1/4
f 260/1/4 256/1/4 261/1/4
f 250/1/4 252/1/4 262/1/4
f 252/2/4 258/2/4 262/2/4
f 259/1/4 260/1/4 263/1/4
f 262/2/4 258/2/4 263/2/4
f 258/1/4 259/1/4 263/1/4
f 263/1/4 260/1/4 264/1/4
f 264/1/4 260/1/4 265/1/4
f 262/1/4 263/1/4 266/1/4
f 263/1/4 264/1/4 266/1/4
f 266/1/4 264/1/4 267/1/4
f 250/1/4 262/1/4 268/1/4
f 262/1/4 266/1/4 268/1/4
f 268/1/4 266/1/4 269/1/4
f 272/1/5 271/1/5 270/1/5
f 273/1/5 271/1/5 272/1/5
f 276/3/5 275/3/5 274/3/5
f 277/3/5 276/3/5 274/3/5
f 278/3/5 277/3/5 274/3/5
f 279/3/5 277/3/5 278/3/5
f 282/1/5 281/1/5 280/1/5
f 283/1/5 281/1/5 282/1/5
f 284/2/5 283/2/5 282/2/5
f 285/2/5 283/2/5 284/2/5
f 286/1/5 285/1/5 284/1/5
f 287/1/5 285/1/5 286/1/5
f 288/2/5 287/2/5 286/2/5
f 289/2/5 287/2/5 288/2/5
f 290/1/5 289/1/5 288/1/5
f 291/1/5 289/1/5 290/1/5
f 292/2/5 291/2/5 290/2/5
f 293/2/5 291/2/5 292/2/5
f 294/1/5 293/1/5 292/1/5
f 295/1/5 293/1/5 294/1/5
f 296/2/5 295/2/5 294/2/5
f 297/2/5 295/2/5 296/2/5
f 300/1/5 299/1/5 298/1/5
f 301/1/5 299/1/5 300/1/5
f 302/2/5 301/2/5 300/2/5
f 303/2/5 301/2/5 302/2/5
f 304/1/5 303/1/5 302/1/5
f 305/1/5 303/1/5 304/1/5
f 306/2/5 305/2/5 304/2/5
f 307/2/5 305/2/5 306/2/5
f 308/1/5 307/1/5 306/1/5
f 309/1/5 307/1/5 308/1/5
f 310/2/5 309/2/5 308/2/5
f 311/2/5 309/2/5 310/2/5
f 312/1/5 311/1/5 310/1/5
f 313/1/5 311/1/5 312/1/5
f 314/2/5 313/2/5 312/2/5
f 315/2/5 313/2/5 314/2/5
f 318/1/5 317/1/5 316/1/5
f 319/1/5 317/1/5 318/1/5
f 320/2/5 319/2/5 318/2/5
f 321/2/5 319/2/5 320/2/5
f 322/1/5 321/1/5 320/1/5
f 323/1/5 321/1/5 322/1/5
f 324/2/5 323/2/5 322/2/5
f 325/2/5 323/2/5 324/2/5
f 326/1/5 325/1/5 324/1/5
f 327/1/5 325/1/5 326/1/5
f 328/2/5 327/2/5 326/2/5
f 329/2/5 327/2/5 328/2/5
f 330/1/5 329/1/5 328/1/5
f 331/1/5 329/1/5 330/1/5
f 332/2/5 331/2/5 330/2/5
f 333/2/5 331/2/5 332/2/5
f 336/1/5 335/1/5 334/1/5
f 337/1/5 335/1/5 336/1/5
f 338/1/5 336/1/5 334/1/5
f 338/2/5 337/2/5 336/2/5
f 339/2/5 337/2/5 338/2/5
f 340/1/5 338/1/5 334/1/5
f 340/1/5 339/1/5 338/1/5
f 341/1/5 339/1/5 340/1/5
f 342/1/5 340/1/5 334/1/5
f 342/2/5 341/2/5 340/2/5
f 343/2/5 341/2/5 342/2/5
f 344/1/5 342/1/5 334/1/5
f 344/1/5 343/1/5 342/1/5
f 345/1/5 343/1/5 344/1/5
f 346/1/5 344/1/5 334/1/5
f 346/2/5 345/2/5 344/2/5
f 347/2/5 345/2/5 346/2/5
f 348/1/5 346/1/5 334/1/5
f 348/1/5 347/1/5 346/1/5
f 349/1/5 347/1/5 348/1/5
f 350/1/5 348/1/5 334/1/5
f 351/2/5 349/2/5 348/2/5
f 351/1/5 348/1/5 350/1/5
f 352/2/5 349/2/5 351/2/5
f 353/1/6 354/1/6 355/1/6
f 355/1/6 354/1/6 356/1/6
f 353/1/6 355/1/6 357/1/6
f 357/1/6 358/1/6 359/1/6
f 357/1/6 359/1/6 360/1/6
f 353/1/6 357/1/6 361/1/6
f 357/1/6 360/1/6 361/1/6
f 361/1/6 360/1/6 362/1/6
f 353/1/6 361/1/6 363/1/6
f 363/1/6 364/1/6 365/1/6
f 363/1/6 365/1/6 366/1/6
f 363/1/6 366/1/6 367/1/6
f 353/1/6 363/1/6 368/1/6
f 363/1/6 367/1/6 368/1/6
f 368/1/6 367/1/6 369/1/6
f 369/1/6 367/1/6 370/1/6
f 370/1/6 367/1/6 371/1/6
f 372/3/6 373/3/6 374/3/6
f 372/3/6 374/3/6 375/3/6
f 372/3/6 375/3/6 376/3/6
f 376/3/6 375/3/6 377/3/6
f 378/1/6 379/1/6 380/1/6
f 380/1/6 379/1/6 381/1/6
f 380/2/6 381/2/6 382/2/6
f 382/2/6 381/2/6 383/2/6
f 382/1/6 383/1/6 384/1/6
f 384/1/6 383/1/6 385/1/6
f 384/2/6 385/2/6 386/2/6
f 386/2/6 385/2/6 387/2/6
f 386/1/6 387/1/6 388/1/6
f 388/1/6 387/1/6 389/1/6
f 388/2/6 389/2/6 390/2/6
f 390/2/6 389/2/6 391/2/6
f 390/1/6 391/1/6 392/1/6
f 392/1/6 391/1/6 393/1/6
f 392/2/6 393/2/6 394/2/6
f 394/2/6 393/2/6 395/2/6
f 394/1/6 395/1/6 396/1/6
f 396/1/6 395/1/6 397/1/6
f 398/1/6 399/1/6 400/1/6
f 400/1/6 399/1/6 401/1/6
f 400/2/6 401/2/6 402/2/6
f 402/2/6 401/2/6 403/2/6
f 402/1/6 403/1/6 404/1/6
f 404/1/6 403/1/6 405/1/6
f 404/2/6 405/2/6 406/2/6
f 406/2/6 405/2/6 407/2/6
f 406/1/6 407/1/6 408/1/6
f 408/1/6 407/1/6 409/1/6
f 408/2/6 409/2/6 410/2/6
f 410/2/6 409/2/6 411/2/6
f 410/1/6 411/1/6 412/1/6
f 412/1/6 411/1/6 413/1/6
f 412/2/6 413/2/6 414/2/6
f 414/2/6 413/2/6 415/2/6
f 414/1/6 415/1/6 416/1/6
f 416/1/6 415/1/6 417/1/6
f 418/1/6 419/1/6 420/1/6
f 420/1/6 419/1/6 421/1/6
f 420/2/6 421/2/6 422/2/6
f 422/2/6 421/2/6 423/2/6
f 422/1/6 423/1/6 424/1/6
f 424/1/6 423/1/6 425/1/6
f 424/2/6 425/2/6 426/2/6
f 426/2/6 425/2/6 427/2/6
f 426/1/6 427/1/6 428/1/6
f 428/1/6 427/1/6 429/1/6
f 428/2/6 429/2/6 430/2/6
f 430/2/6 429/2/6 431/2/6
f 430/1/6 431/1/6 432/1/6
f 432/1/6 431/1/6 433/1/6
f 432/2/6 433/2/6 434/2/6
f 434/2/6 433/2/6 435/2/6
f 434/1/6 435/1/6 436/1/6
f 436/1/6 435/1/6 437/1/6
f 438/1/6 439/1/6 440/1/6
f 440/1/6 439/1/6 441/1/6
f 440/2/6 441/2/6 442/2/6
f 442/2/6 441/2/6 443/2/6
f 442/1/6 443/1/6 444/1/6
f 444/1/6 443/1/6 445/1/6
f 444/2/6 445/2/6 446/2/6
f 446/2/6 445/2/6 447/2/6
f 446/1/6 447/1/6 448/1/6
f 448/1/6 447/1/6 449/1/6
f 448/2/6 449/2/6 450/2/6
f 450/2/6 449/2/6 451/2/6
f 450/1/6 451/1/6 452/1/6
f 452/1/6 451/1/6 453/1/6
f 452/2/6 453/2/6 454/2/6
f 454/2/6 453/2/6 455/2/6
f 454/1/6 455/1/6 456/1/6
f 456/1/6 455/1/6 457/1/6
f 458/1/6 459/1/6 460/1/6
f 460/1/6 459/1/6 461/1/6
f 458/1/6 460/1/6 462/1/6
f 460/2/6 461/2/6 462/2/6
f 462/2/6 461/2/6 463/2/6
f 458/1/6 462/1/6 464/1/6
f 462/1/6 463/1/6 464/1/6
f 464/1/6 463/1/6 465/1/6
f 458/1/6 464/1/6 466/1/6
f 464/2/6 465/2/6 466/2/6
f 466/2/6 465/2/6 467/2/6
f 458/1/6 466/1/6 468/1/6
f 466/1/6 467/1/6 468/1/6
f 468/1/6 467/1/6 469/1/6
f 458/1/6 468/1/6 470/1/6
f 468/2/6 469/2/6 470/2/6
f 470/2/6 469/2/6 471/2/6
f 458/1/6 470/1/6 472/1/6
f 470/1/6 471/1/6 472/1/6
f 472/1/6 471/1/6 473/1/6
f 458/1/6 472/1/6 474/1/6
f 472/2/6 473/2/6 474/2/6
f 474/2/6 473/2/6 475/2/6
f 458/1/6 474/1/6 476/1/6
f 474/1/6 475/1/6 476/1/6
f 476/1/6 475/1/6 477/1/6
